<svg xmlns="http://www.w3.org/2000/svg" xmlns:xlink="http://www.w3.org/1999/xlink" width="418" height="136" viewBox="0 0 418 136">
  <defs>
    <clipPath id="clip-ledzep">
      <rect width="418" height="136"/>
    </clipPath>
  </defs>
  <g id="ledzep" clip-path="url(#clip-ledzep)">
    <g id="XMLID_1_" transform="translate(-41.5 -177.6)">
      <path id="XMLID_3_" d="M170.9,255.7H156.3l4.4-11.9h14.6" fill="#fff"/>
      <path id="XMLID_4_" d="M334.4,217.1V288h11.5a10.765,10.765,0,0,0,5.2-.9l2.9-1.6V297H323.6a9.7,9.7,0,0,0,1.6-4.2c.1-.4.1-1,.2-1.7a16.2,16.2,0,0,0,.1-2.2V201a36.813,36.813,0,0,0-.2-3.9,11.147,11.147,0,0,0-1.6-4.2l23.5-.3V204a23.793,23.793,0,0,0-3.8-2,10.328,10.328,0,0,0-4.3-.6l-4.6.3V208H355v11.5a14.431,14.431,0,0,0-1.9-1.1,8.65,8.65,0,0,0-1.7-.7,14.414,14.414,0,0,0-4.5-.6Z" fill="#fff"/>
      <path id="XMLID_7_" d="M320.1,199.3a8.121,8.121,0,0,0-1.9-3.4,9.148,9.148,0,0,0-3.7-2.4,12.779,12.779,0,0,0-4.4-.9h-26a10.533,10.533,0,0,1,1.6,4.2,20.68,20.68,0,0,1,.2,3.9v86.6a15.482,15.482,0,0,1-.1,2.2c-.1.7-.1,1.3-.2,1.7a11.147,11.147,0,0,1-1.6,4.2h12.6A13.676,13.676,0,0,1,295,291a8.622,8.622,0,0,1-.1-1.7c0-.6-.1-1.4-.1-2.1V215.1H310a14.043,14.043,0,0,0,2.3-.2,9.686,9.686,0,0,0,4.5-2.3c.5-.5,1.1-1.1,1.6-1.7a15.915,15.915,0,0,0,1.3-2.2,11.275,11.275,0,0,0,.8-2.4,17.851,17.851,0,0,0,.2-2.3,20.183,20.183,0,0,0-.6-4.7Zm-6.8,4.5c0,.6-.2,2.6-.7,3a2.271,2.271,0,0,1-1.6.6H294.8v-5.9H311a2.4,2.4,0,0,1,2.3,2.3Z" fill="#fff"/>
      <path id="XMLID_8_" d="M222.9,216.8v51.5h4.5a10.549,10.549,0,0,0,5.2-.9l2.9-1.6v11.4H212a9.238,9.238,0,0,0,1.6-4.2c.1-.4.1-1,.2-1.7a16.2,16.2,0,0,0,.1-2.2V200.7a38.445,38.445,0,0,0-.2-3.9,11.147,11.147,0,0,0-1.6-4.2h22.5V204a23.792,23.792,0,0,0-3.8-2,12.926,12.926,0,0,0-4.4-.6h-3.5v6.3h17.8v11.5a14.432,14.432,0,0,0-1.9-1.1,8.651,8.651,0,0,0-1.7-.7,14.414,14.414,0,0,0-4.5-.6Z" fill="#fff"/>
      <path id="XMLID_9_" d="M110.3,297H67.5a9.7,9.7,0,0,0,1.6-4.2c.1-.4.1-1,.2-1.7a16.2,16.2,0,0,0,.1-2.2V200.8a36.816,36.816,0,0,0-.2-3.9,11.148,11.148,0,0,0-1.6-4.2H80.9a16.09,16.09,0,0,0-2.5,8.1V288h23.9a16.675,16.675,0,0,0,8.1-2.5l-.1,11.5Z" fill="#fff"/>
      <path id="XMLID_10_" d="M97.5,216.8v51.5H102a10.765,10.765,0,0,0,5.2-.9l2.9-1.6v11.4H86.6a9.238,9.238,0,0,0,1.6-4.2c.1-.4.1-1,.2-1.7a16.2,16.2,0,0,0,.1-2.2V200.7a38.442,38.442,0,0,0-.2-3.9,11.148,11.148,0,0,0-1.6-4.2h22.5V204a23.792,23.792,0,0,0-3.8-2,12.688,12.688,0,0,0-4.3-.6H97.6v6.3h17.8v11.5a14.432,14.432,0,0,0-1.9-1.1,8.651,8.651,0,0,0-1.7-.7,14.414,14.414,0,0,0-4.5-.6Z" fill="#fff"/>
      <path id="XMLID_13_" d="M141.2,192.6H117.4a20.676,20.676,0,0,1,1.6,6.3c.1.7.1,1.5.2,2.6,0,1.1.1,2.2.1,3.3v79.8c0,2.4-.1,4.4-.2,5.8a22.8,22.8,0,0,1-1.6,6.6c6.6-.1,11.9,1.4,17.6-4.8,6.1-6.6,10.9-21.9,14.2-32.6,7.2-23.3,13.2-37.9,13.7-49,.2-8.1-2.9-18-21.8-18ZM151.8,217c-4.2,17.5-10.9,36.4-17.5,55.8-1.7,4.5-3.6,8.6-6.1,11.6V201.9c5.6.1,10.3,0,15.9.1,10.8.7,9.4,7.5,7.7,15Z" fill="#fff"/>
      <path id="XMLID_14_" d="M209.9,192.6l-36,94.2h51a19.839,19.839,0,0,0,5.3-.6,17.012,17.012,0,0,0,4.7-2v11.2H160l36.3-94.3H183.1a14.98,14.98,0,0,0-2.2.2,11.2,11.2,0,0,0-2.3.6,21.777,21.777,0,0,0-4.2,1.8v-11h35.5Z" fill="#fff"/>
      <path id="XMLID_17_" d="M278.8,199.3a8.121,8.121,0,0,0-1.9-3.4,9.148,9.148,0,0,0-3.7-2.4,12.779,12.779,0,0,0-4.4-.9h-26a9.238,9.238,0,0,1,1.6,4.2,20.681,20.681,0,0,1,.2,3.9v86.6a15.482,15.482,0,0,1-.1,2.2c-.1.7-.1,1.3-.2,1.7a11.148,11.148,0,0,1-1.6,4.2h12.6a13.676,13.676,0,0,1-1.6-4.4c-.1-.5-.1-1-.2-1.7V215.1h15.2a14.043,14.043,0,0,0,2.3-.2,9.686,9.686,0,0,0,4.5-2.3c.5-.5,1-1.1,1.6-1.7a15.915,15.915,0,0,0,1.3-2.2,11.275,11.275,0,0,0,.8-2.4,17.851,17.851,0,0,0,.2-2.3A20.182,20.182,0,0,0,278.8,199.3Zm-7.5,7.4a2.271,2.271,0,0,1-1.6.6H253.5v-5.9h16.2a1.99,1.99,0,0,1,1.6.7,2.452,2.452,0,0,1,.6,1.6c0,.7-.2,2.6-.6,3Z" fill="#fff"/>
      <path id="XMLID_18_" d="M391.1,297H357.3a9.7,9.7,0,0,0,1.6-4.2c.1-.5.1-1,.2-1.7a16.2,16.2,0,0,0,.1-2.2l.3-88.1a36.813,36.813,0,0,0-.2-3.9,11.147,11.147,0,0,0-1.6-4.2H371a16.089,16.089,0,0,0-2.5,8.1l-.3,87.3h14.9a16.675,16.675,0,0,0,8.1-2.5l-.1,11.4Z" fill="#fff"/>
      <path id="XMLID_19_" d="M389.6,276.6H377a9.238,9.238,0,0,0,1.6-4.2c.1-.4.1-1,.2-1.7a16.2,16.2,0,0,0,.1-2.2V200.8a38.439,38.439,0,0,0-.2-3.9,11.147,11.147,0,0,0-1.6-4.2h12.6a12.179,12.179,0,0,0-1.5,4,27.276,27.276,0,0,0-.3,4.1v69.8a8.806,8.806,0,0,0,.2,1.7,11.641,11.641,0,0,0,1.5,4.3Z" fill="#fff"/>
      <path id="XMLID_20_" d="M421.7,274.8l-.1-1.2-.3-1.2L407.7,233l-.3,55.8a13.422,13.422,0,0,0,.1,2.1c0,.6.1,1.2.1,1.7a14.587,14.587,0,0,0,1.6,4.4H396.6a9.7,9.7,0,0,0,1.6-4.2c.1-.5.1-1,.2-1.7a16.2,16.2,0,0,0,.1-2.2l.3-88.1a36.813,36.813,0,0,0-.2-3.9,11.147,11.147,0,0,0-1.6-4.2h14.4a7.927,7.927,0,0,0-.5,2.5c0,.7,0,19.1.1,19.3l10.8,29.6V199.7a18,18,0,0,0-.2-2.8,12.27,12.27,0,0,0-1.6-4.2h12.6a14.925,14.925,0,0,0-1.5,4,12.31,12.31,0,0,0-.2,2,14.768,14.768,0,0,0-.1,2.1V301.5a8.806,8.806,0,0,0,.2,1.7,14.587,14.587,0,0,0,1.6,4.4H420a8.813,8.813,0,0,0,1.6-4.2,22.445,22.445,0,0,0,.2-4l-.1-24.6Z" fill="#fff"/>
    </g>
  </g>
</svg>
