<?xml version="1.0" encoding="utf-8"?>
<!-- Generator: Adobe Illustrator 19.0.0, SVG Export Plug-In . SVG Version: 6.00 Build 0)  -->
<svg version="1.1" id="Layer_1" xmlns="http://www.w3.org/2000/svg" xmlns:xlink="http://www.w3.org/1999/xlink" x="0px" y="0px"
	 viewBox="0 0 500 500" style="enable-background:new 0 0 500 500;" xml:space="preserve">
<g id="XMLID_1_">
	<polyline id="XMLID_3_" points="170.9,255.7 156.3,255.7 160.7,243.8 175.3,243.8 	"/>
	<path id="XMLID_4_" d="M334.4,217.1V288h11.5c1.9,0,3.8-0.1,5.2-0.9l2.9-1.6V297h-30.4c0.8-1.2,1.4-2.6,1.6-4.2
		c0.1-0.4,0.1-1,0.2-1.7c0.1-0.7,0.1-1.5,0.1-2.2V201c0-1.6-0.1-3-0.2-3.9c-0.3-1.6-0.8-3-1.6-4.2l23.5-0.3v11.4
		c-1.5-0.9-2.7-1.6-3.8-2c-1-0.4-2.5-0.7-4.3-0.6l-4.6,0.3v6.3h20.5v11.5c-0.8-0.5-1.4-0.9-1.9-1.1c-0.5-0.3-1.1-0.5-1.7-0.7
		c-1.2-0.4-2.7-0.6-4.5-0.6L334.4,217.1L334.4,217.1z"/>
	<path id="XMLID_7_" d="M320.1,199.3c-0.4-1.3-1-2.5-1.9-3.4c-0.9-1-2.1-1.8-3.7-2.4c-1.6-0.6-3.1-0.9-4.4-0.9h-26
		c0.8,1.2,1.3,2.5,1.6,4.2c0.2,0.9,0.2,2.2,0.2,3.9v86.6c0,0.8,0,1.5-0.1,2.2c-0.1,0.7-0.1,1.3-0.2,1.7c-0.3,1.6-0.8,3-1.6,4.2h12.6
		c-0.8-1.4-1.3-2.8-1.6-4.4c-0.1-0.5-0.1-1-0.1-1.7c0-0.6-0.1-1.4-0.1-2.1v-72.1h15.2c0.9,0,1.7-0.1,2.3-0.2
		c1.7-0.4,3.2-1.1,4.5-2.3c0.5-0.5,1.1-1.1,1.6-1.7c0.5-0.7,0.9-1.4,1.3-2.2c0.4-0.8,0.6-1.6,0.8-2.4c0.1-0.8,0.2-1.5,0.2-2.3
		C320.7,202.9,320.5,200.6,320.1,199.3L320.1,199.3z M313.3,203.8c0,0.6-0.2,2.6-0.7,3c-0.4,0.4-1,0.6-1.6,0.6h-16.2v-5.9h16.2
		c0.6,0,1.2,0.2,1.6,0.7C313.1,202.6,313.3,203.2,313.3,203.8L313.3,203.8z"/>
	<path id="XMLID_8_" d="M222.9,216.8v51.5h4.5c2,0,3.8-0.1,5.2-0.9l2.9-1.6v11.4H212c0.8-1.2,1.4-2.5,1.6-4.2c0.1-0.4,0.1-1,0.2-1.7
		c0.1-0.7,0.1-1.5,0.1-2.2v-68.4c0-1.6-0.1-2.9-0.2-3.9c-0.3-1.6-0.8-3-1.6-4.2h22.5v11.4c-1.5-0.9-2.7-1.6-3.8-2
		c-1.1-0.4-2.5-0.6-4.4-0.6h-3.5v6.3h17.8v11.5c-0.8-0.5-1.4-0.9-1.9-1.1c-0.5-0.3-1.1-0.5-1.7-0.7c-1.2-0.4-2.7-0.6-4.5-0.6
		L222.9,216.8L222.9,216.8z"/>
	<path id="XMLID_9_" d="M110.3,297H67.5c0.8-1.2,1.4-2.6,1.6-4.2c0.1-0.4,0.1-1,0.2-1.7c0.1-0.7,0.1-1.5,0.1-2.2v-88.1
		c0-1.6-0.1-3-0.2-3.9c-0.3-1.6-0.8-3-1.6-4.2h13.3c-1.7,2.9-2.5,5.6-2.5,8.1V288h23.9c2.4,0,5.1-0.8,8.1-2.5L110.3,297L110.3,297z"
		/>
	<path id="XMLID_10_" d="M97.5,216.8v51.5h4.5c1.9,0,3.8-0.1,5.2-0.9l2.9-1.6v11.4H86.6c0.8-1.2,1.4-2.5,1.6-4.2
		c0.1-0.4,0.1-1,0.2-1.7c0.1-0.7,0.1-1.5,0.1-2.2v-68.4c0-1.6-0.1-2.9-0.2-3.9c-0.3-1.6-0.8-3-1.6-4.2h22.5v11.4
		c-1.5-0.9-2.7-1.6-3.8-2c-1.1-0.4-2.5-0.6-4.3-0.6h-3.5v6.3h17.8v11.5c-0.8-0.5-1.4-0.9-1.9-1.1c-0.5-0.3-1.1-0.5-1.7-0.7
		c-1.2-0.4-2.7-0.6-4.5-0.6L97.5,216.8L97.5,216.8z"/>
	<path id="XMLID_13_" d="M141.2,192.6h-23.8c0.8,1.7,1.3,3.8,1.6,6.3c0.1,0.7,0.1,1.5,0.2,2.6c0,1.1,0.1,2.2,0.1,3.3v79.8
		c0,2.4-0.1,4.4-0.2,5.8c-0.3,2.6-0.8,4.8-1.6,6.6c6.6-0.1,11.9,1.4,17.6-4.8c6.1-6.6,10.9-21.9,14.2-32.6
		c7.2-23.3,13.2-37.9,13.7-49C163.2,202.5,160.1,192.6,141.2,192.6L141.2,192.6z M151.8,217c-4.2,17.5-10.9,36.4-17.5,55.8
		c-1.7,4.5-3.6,8.6-6.1,11.6v-82.5c5.6,0.1,10.3,0,15.9,0.1C154.9,202.7,153.5,209.5,151.8,217L151.8,217z"/>
	<path id="XMLID_14_" d="M209.9,192.6l-36,94.2h51c2.1,0,3.9-0.2,5.3-0.6c1.5-0.4,3.1-1,4.7-2v11.2h-74.9l36.3-94.3h-13.2
		c-0.8,0-1.5,0.1-2.2,0.2c-0.7,0.1-1.5,0.3-2.3,0.6c-1.1,0.3-2.5,0.9-4.2,1.8v-11H209.9z"/>
	<path id="XMLID_17_" d="M278.8,199.3c-0.4-1.3-1-2.5-1.9-3.4c-0.9-1-2.1-1.8-3.7-2.4c-1.6-0.6-3.1-0.9-4.4-0.9h-26
		c0.8,1.2,1.4,2.5,1.6,4.2c0.2,0.9,0.2,2.2,0.2,3.9v86.6c0,0.8,0,1.5-0.1,2.2c-0.1,0.7-0.1,1.3-0.2,1.7c-0.3,1.6-0.8,3-1.6,4.2h12.6
		c-0.8-1.4-1.3-2.8-1.6-4.4c-0.1-0.5-0.1-1-0.2-1.7c0-0.6,0-1.4,0-2.1v-72.1h15.2c0.9,0,1.7-0.1,2.3-0.2c1.7-0.4,3.2-1.1,4.5-2.3
		c0.5-0.5,1-1.1,1.6-1.7c0.5-0.7,0.9-1.4,1.3-2.2c0.4-0.8,0.6-1.6,0.8-2.4c0.1-0.8,0.2-1.5,0.2-2.3
		C279.4,202.9,279.2,200.6,278.8,199.3z M271.3,206.7c-0.4,0.4-1,0.6-1.6,0.6h-16.2v-5.9h16.2c0.6,0,1.2,0.2,1.6,0.7
		c0.4,0.5,0.6,1,0.6,1.6C271.9,204.4,271.7,206.3,271.3,206.7L271.3,206.7z"/>
	<path id="XMLID_18_" d="M391.1,297h-33.8c0.8-1.2,1.4-2.6,1.6-4.2c0.1-0.5,0.1-1,0.2-1.7c0.1-0.7,0.1-1.5,0.1-2.2l0.3-88.1
		c0-1.6-0.1-3-0.2-3.9c-0.3-1.6-0.8-3-1.6-4.2h13.3c-1.7,2.9-2.5,5.6-2.5,8.1l-0.3,87.3h14.9c2.4,0,5.1-0.8,8.1-2.5L391.1,297
		L391.1,297z"/>
	<path id="XMLID_19_" d="M389.6,276.6H377c0.8-1.2,1.4-2.5,1.6-4.2c0.1-0.4,0.1-1,0.2-1.7c0.1-0.7,0.1-1.5,0.1-2.2v-67.7
		c0-1.6-0.1-2.9-0.2-3.9c-0.3-1.6-0.8-3-1.6-4.2h12.6c-0.8,1.3-1.2,2.6-1.5,4c-0.2,1.3-0.3,2.7-0.3,4.1v67.7c0,0.8,0,1.5,0,2.1
		c0,0.6,0.1,1.2,0.2,1.7C388.3,273.8,388.8,275.2,389.6,276.6L389.6,276.6z"/>
	<path id="XMLID_20_" d="M421.7,274.8l-0.1-1.2l-0.3-1.2L407.7,233l-0.3,55.8c0,0.8,0,1.5,0.1,2.1c0,0.6,0.1,1.2,0.1,1.7
		c0.3,1.5,0.8,3,1.6,4.4h-12.6c0.8-1.2,1.4-2.6,1.6-4.2c0.1-0.5,0.1-1,0.2-1.7c0.1-0.7,0.1-1.5,0.1-2.2l0.3-88.1
		c0-1.6-0.1-3-0.2-3.9c-0.3-1.6-0.8-3-1.6-4.2h14.4c-0.3,0.9-0.5,1.7-0.5,2.5c0,0.7,0,19.1,0.1,19.3l10.8,29.6v-44.4
		c0-1.2-0.1-2.2-0.2-2.8c-0.3-1.6-0.9-3.1-1.6-4.2h12.6c-0.7,1.3-1.2,2.6-1.5,4c-0.1,0.6-0.2,1.3-0.2,2c-0.1,0.7-0.1,1.4-0.1,2.1
		v98.6c0,0.7,0,1.4,0,2.1c0,0.6,0.1,1.2,0.2,1.7c0.3,1.5,0.8,3,1.6,4.4h-12.6c0.8-1.1,1.4-2.5,1.6-4.2c0.2-1,0.2-2.3,0.2-4
		L421.7,274.8L421.7,274.8z"/>
</g>
</svg>
